# xmcd CD database file
#
# Track frame offsets:
#	150
#	16928
#	30914
#	48732
#	62363
#	74609
#	92549
#	104644
#	126446
#	143062
#	157700
#
# Disc length: 2279 seconds
#
# Revision: 0
# Processed by: cddbd v1.5.1PL0 Copyright (c) Steve Scherf et al.
# Submitted via: NeoAudio 9.9.9
#
DISCID=8c08e50b
DTITLE=Chet Baker - Sings and Plays
DYEAR=1955
DGENRE=Jazz
TTITLE0=Let's Get Lost
TTITLE1=This is Always
TTITLE2=Long Ago and Far Away
TTITLE3=Someone to Watch over Me
TTITLE4=Just Friends
TTITLE5=I Wish I knew
TTITLE6=Daybreak
TTITLE7=You Don't Know What Love Is
TTITLE8=Grey December
TTITLE9=I Remember You
TTITLE10=Let's Get Lost_EP Take
EXTD=YEAR: 1955
EXTT0=
EXTT1=
EXTT2=
EXTT3=
EXTT4=
EXTT5=
EXTT6=
EXTT7=
EXTT8=
EXTT9=
EXTT10=
PLAYORDER=
